
<svg width="180" height="180" viewBox="0 0 180 180" xmlns="http://www.w3.org/2000/svg">
  <defs>
    <linearGradient id="gradient" x1="0%" y1="0%" x2="100%" y2="100%">
      <stop offset="0%" style="stop-color:#3b82f6;stop-opacity:1" />
      <stop offset="100%" style="stop-color:#1d4ed8;stop-opacity:1" />
    </linearGradient>
  </defs>

  <!-- Background circle -->
  <circle cx="90" cy="90" r="86" fill="url(#gradient)" stroke="#ffffff" stroke-width="2"/>

  <!-- Health cross symbol -->
  <g transform="translate(90, 90)">
    <!-- Vertical bar -->
    <rect x="-15" y="-45" width="30" height="90" fill="white" rx="7.5"/>
    <!-- Horizontal bar -->
    <rect x="-45" y="-15" width="90" height="30" fill="white" rx="7.5"/>
  </g>

  <!-- Heart symbol (small) -->
  <g transform="translate(135, 45) scale(0.3)">
    <path d="M12 21.35l-1.45-1.32C5.4 15.36 2 12.28 2 8.5 2 5.42 4.42 3 7.5 3c1.74 0 3.41.81 4.5 2.09C13.09 3.81 14.76 3 16.5 3 19.58 3 22 5.42 22 8.5c0 3.78-3.4 6.86-8.55 11.54L12 21.35z" fill="white"/>
  </g>
</svg>