
<svg width="144" height="144" viewBox="0 0 144 144" xmlns="http://www.w3.org/2000/svg">
  <defs>
    <linearGradient id="gradient" x1="0%" y1="0%" x2="100%" y2="100%">
      <stop offset="0%" style="stop-color:#3b82f6;stop-opacity:1" />
      <stop offset="100%" style="stop-color:#1d4ed8;stop-opacity:1" />
    </linearGradient>
  </defs>

  <!-- Background circle -->
  <circle cx="72" cy="72" r="68" fill="url(#gradient)" stroke="#ffffff" stroke-width="2"/>

  <!-- Health cross symbol -->
  <g transform="translate(72, 72)">
    <!-- Vertical bar -->
    <rect x="-12" y="-36" width="24" height="72" fill="white" rx="6"/>
    <!-- Horizontal bar -->
    <rect x="-36" y="-12" width="72" height="24" fill="white" rx="6"/>
  </g>

  <!-- Heart symbol (small) -->
  <g transform="translate(108, 36) scale(0.3)">
    <path d="M12 21.35l-1.45-1.32C5.4 15.36 2 12.28 2 8.5 2 5.42 4.42 3 7.5 3c1.74 0 3.41.81 4.5 2.09C13.09 3.81 14.76 3 16.5 3 19.58 3 22 5.42 22 8.5c0 3.78-3.4 6.86-8.55 11.54L12 21.35z" fill="white"/>
  </g>
</svg>