
<svg width="192" height="192" viewBox="0 0 192 192" xmlns="http://www.w3.org/2000/svg">
  <defs>
    <linearGradient id="gradient" x1="0%" y1="0%" x2="100%" y2="100%">
      <stop offset="0%" style="stop-color:#3b82f6;stop-opacity:1" />
      <stop offset="100%" style="stop-color:#1d4ed8;stop-opacity:1" />
    </linearGradient>
  </defs>

  <!-- Background circle -->
  <circle cx="96" cy="96" r="92" fill="url(#gradient)" stroke="#ffffff" stroke-width="2"/>

  <!-- Health cross symbol -->
  <g transform="translate(96, 96)">
    <!-- Vertical bar -->
    <rect x="-16" y="-48" width="32" height="96" fill="white" rx="8"/>
    <!-- Horizontal bar -->
    <rect x="-48" y="-16" width="96" height="32" fill="white" rx="8"/>
  </g>

  <!-- Heart symbol (small) -->
  <g transform="translate(144, 48) scale(0.3)">
    <path d="M12 21.35l-1.45-1.32C5.4 15.36 2 12.28 2 8.5 2 5.42 4.42 3 7.5 3c1.74 0 3.41.81 4.5 2.09C13.09 3.81 14.76 3 16.5 3 19.58 3 22 5.42 22 8.5c0 3.78-3.4 6.86-8.55 11.54L12 21.35z" fill="white"/>
  </g>
</svg>